USFL
nRows=119
nColumns=2
inDegrees=yes
endheader
time	med_gas_r	
2.79133	 54.670007	
2.8629	 54.419730	
2.93448	 54.636342	
3.00605	 54.535723	
3.07762	 54.591825	
3.14919	 54.599691	
3.22077	 54.572443	
3.29234	 54.643637	
3.36391	 54.508358	
3.43548	 54.573954	
3.50706	 54.471944	
3.57863	 54.602825	
3.6502	 54.475389	
3.72177	 54.578063	
3.79335	 54.588427	
3.86492	 54.542136	
3.93649	 54.568984	
4.00806	 54.556251	
4.07964	 54.572734	
4.15121	 54.550524	
4.22278	 54.580566	
4.29435	 54.510076	
4.36593	 54.586822	
4.4375	 54.693907	
4.50907	 55.146875	
4.58065	 54.858396	
4.65222	 54.812321	
4.72379	 54.702193	
4.79536	 54.713531	
4.86694	 54.794711	
4.93851	 54.653015	
5.01008	 54.633016	
5.08165	 54.582036	
5.15323	 41.690305	
5.2248	 45.839615	
5.29637	 42.261071	
5.36794	 38.203231	
5.43952	 34.533469	
5.51109	 32.639878	
5.58266	 32.472100	
5.65423	 32.256232	
5.72581	 32.110116	
5.79738	 32.093235	
5.86895	 32.117090	
5.94052	 31.955013	
6.0121	 31.781451	
6.08367	 31.459794	
6.15524	 31.138969	
6.22681	 30.818595	
6.29839	 30.630892	
6.36996	 30.268339	
6.44153	 29.949235	
6.5131	 30.023575	
6.58468	 30.135437	
6.65625	 30.285142	
6.72782	 30.294366	
6.7994	 30.182930	
6.87097	 30.049122	
6.94254	 30.062338	
7.01411	 29.877936	
7.08569	 29.915381	
7.15726	 30.001750	
7.22883	 29.856260	
7.3004	 29.512040	
7.37198	 29.627564	
7.44355	 29.369073	
7.51512	 29.228664	
7.58669	 29.263481	
7.65827	 29.486865	
7.72984	 29.395361	
7.80141	 29.472831	
7.87298	 29.345950	
7.94456	 29.365970	
8.01613	 29.347850	
8.0877	 29.247340	
8.15927	 29.100138	
8.23085	 29.106129	
8.30242	 29.057430	
8.37399	 28.827642	
8.44556	 28.773046	
8.51714	 28.922261	
8.58871	 28.908069	
8.66028	 28.828890	
8.73185	 28.883388	
8.80343	 28.878063	
8.875	 28.835464	
8.94657	 28.879991	
9.01815	 28.773020	
9.08972	 28.814584	
9.16129	 28.948952	
9.23286	 28.835231	
9.30444	 28.798509	
9.37601	 28.735981	
9.44758	 28.768579	
9.51915	 28.850849	
9.59073	 28.977924	
9.6623	 28.909787	
9.73387	 28.933154	
9.80544	 28.807145	
9.87702	 28.831688	
9.94859	 28.939098	
10.0202	 28.757126	
10.0917	 46.360386	
10.1633	 54.527245	
10.2349	 55.237443	
10.3065	 55.100712	
10.378	 55.840084	
10.4496	 54.719824	
10.5212	 54.910769	
10.5927	 54.651164	
10.6643	 54.661473	
10.7359	 54.748632	
10.8075	 54.774675	
10.879	 54.731712	
10.9506	 54.588878	
11.0222	 54.714224	
11.0937	 54.548219	
11.1653	 54.630144	
11.2369	 54.994476	
